<svg width="34" height="28" viewBox="0 0 34 28" fill="none" xmlns="http://www.w3.org/2000/svg">
<path d="M34 10.4615V20.0513C33.9992 20.7447 33.7234 21.4095 33.2331 21.8998C32.7428 22.3901 32.078 22.6659 31.3846 22.6667H30.5128V26.1538C30.5127 26.3195 30.4654 26.4818 30.3765 26.6216C30.2876 26.7614 30.1606 26.873 30.0106 26.9433C29.8605 27.0136 29.6936 27.0397 29.5292 27.0186C29.3649 26.9974 29.2099 26.9299 29.0826 26.8239L24.0944 22.6667H15.6923C14.9989 22.6659 14.3341 22.3901 13.8438 21.8998C13.3535 21.4095 13.0777 20.7447 13.0769 20.0513V19.1795H21.7949C22.9505 19.1781 24.0585 18.7184 24.8756 17.9013C25.6928 17.0841 26.1525 15.9762 26.1538 14.8205V7.84615H31.3846C32.078 7.84692 32.7428 8.12271 33.2331 8.61302C33.7234 9.10334 33.9992 9.76813 34 10.4615V10.4615ZM21.7949 17.4359H9.99077L5.02049 23.2333C4.90457 23.3684 4.75009 23.4647 4.57781 23.5094C4.40553 23.5541 4.22371 23.5449 4.05676 23.4833C3.88982 23.4216 3.74576 23.3102 3.64394 23.1643C3.54212 23.0183 3.48741 22.8446 3.48718 22.6667V17.4359H2.61538C1.92198 17.4351 1.25718 17.1593 0.766869 16.669C0.276555 16.1787 0.000761495 15.5139 0 14.8205V2.61538C0.000761495 1.92198 0.276555 1.25718 0.766869 0.766869C1.25718 0.276555 1.92198 0.000761495 2.61538 0H21.7949C22.4883 0.000761495 23.1531 0.276555 23.6434 0.766869C24.1337 1.25718 24.4095 1.92198 24.4103 2.61538V14.8205C24.4095 15.5139 24.1337 16.1787 23.6434 16.669C23.1531 17.1593 22.4883 17.4351 21.7949 17.4359V17.4359ZM19.1795 10.4615C19.1795 10.2303 19.0876 10.0086 18.9241 9.84509C18.7607 9.68159 18.5389 9.58974 18.3077 9.58974H6.10256C5.87135 9.58974 5.64961 9.68159 5.48611 9.84509C5.32262 10.0086 5.23077 10.2303 5.23077 10.4615C5.23077 10.6928 5.32262 10.9145 5.48611 11.078C5.64961 11.2415 5.87135 11.3333 6.10256 11.3333H18.3077C18.5389 11.3333 18.7607 11.2415 18.9241 11.078C19.0876 10.9145 19.1795 10.6928 19.1795 10.4615ZM19.1795 6.10256C19.1795 5.87135 19.0876 5.6496 18.9241 5.48611C18.7607 5.32262 18.5389 5.23077 18.3077 5.23077H6.10256C5.87135 5.23077 5.64961 5.32262 5.48611 5.48611C5.32262 5.6496 5.23077 5.87135 5.23077 6.10256C5.23077 6.33378 5.32262 6.55552 5.48611 6.71902C5.64961 6.88251 5.87135 6.97436 6.10256 6.97436H18.3077C18.5389 6.97436 18.7607 6.88251 18.9241 6.71902C19.0876 6.55552 19.1795 6.33378 19.1795 6.10256Z" fill="white"/>
</svg>
