<svg width="20" height="20" viewBox="0 0 20 20" fill="none" xmlns="http://www.w3.org/2000/svg">
<path d="M9.95418 2.25418C12.475 2.25418 12.75 2.25418 13.7583 2.30002C14.675 2.34585 15.1792 2.48335 15.5 2.62085C15.9125 2.75835 16.2792 3.03335 16.6 3.30835C16.9208 3.62918 17.15 3.99585 17.2875 4.40835C17.425 4.72918 17.5625 5.23335 17.6083 6.15001C17.6542 7.15835 17.6542 7.43335 17.6542 9.95418C17.6542 12.475 17.6542 12.75 17.6083 13.7583C17.5625 14.675 17.425 15.1792 17.2875 15.5C16.9667 16.325 16.325 16.9667 15.5 17.2875C15.1792 17.425 14.675 17.5625 13.7583 17.6083C12.75 17.6542 12.475 17.6542 9.95418 17.6542C7.43335 17.6542 7.15835 17.6542 6.15002 17.6083C5.23335 17.5625 4.72918 17.425 4.40835 17.2875C3.99585 17.15 3.62918 16.875 3.30835 16.6C2.98752 16.2792 2.75835 15.9125 2.62085 15.5C2.48335 15.1792 2.34585 14.675 2.30002 13.7583C2.25418 12.75 2.25418 12.475 2.25418 9.95418C2.25418 7.43335 2.25418 7.15835 2.30002 6.15001C2.34585 5.23335 2.48335 4.72918 2.62085 4.40835C2.75835 3.99585 3.03335 3.62918 3.30835 3.30835C3.62918 2.98751 3.99585 2.75835 4.40835 2.62085C4.72918 2.48335 5.23335 2.34585 6.15002 2.30002C7.15835 2.25418 7.47918 2.25418 9.95418 2.25418ZM9.95418 0.55835C7.38752 0.55835 7.06668 0.55835 6.05835 0.604183C5.05002 0.650016 4.36252 0.787516 3.76668 1.06252C3.17085 1.29168 2.62085 1.65835 2.16252 2.11668C1.70418 2.57502 1.29168 3.17085 1.06252 3.76668C0.83335 4.36251 0.650016 5.05001 0.604183 6.05835C0.55835 7.06668 0.55835 7.38751 0.55835 9.95418C0.55835 12.5208 0.55835 12.8417 0.604183 13.85C0.650016 14.8583 0.787516 15.5458 1.06252 16.1417C1.29168 16.7375 1.65835 17.3333 2.16252 17.7917C2.62085 18.25 3.21668 18.6625 3.81252 18.8917C4.40835 19.1208 5.09585 19.3042 6.10418 19.35C7.11252 19.3958 7.43335 19.3958 10 19.3958C12.5667 19.3958 12.8875 19.3958 13.8958 19.35C14.9042 19.3042 15.5917 19.1667 16.1875 18.8917C17.4708 18.3875 18.4333 17.425 18.9375 16.1417C19.1667 15.5458 19.35 14.8583 19.3958 13.85C19.4417 12.8417 19.4417 12.5208 19.4417 9.95418C19.4417 7.38751 19.4417 7.06668 19.3958 6.05835C19.35 5.05001 19.2125 4.36251 18.9375 3.76668C18.7083 3.12501 18.3417 2.57502 17.8375 2.11668C17.3792 1.65835 16.7833 1.24585 16.1875 1.01668C15.5917 0.787516 14.9042 0.604183 13.8958 0.55835C12.8417 0.55835 12.5208 0.55835 9.95418 0.55835Z" fill="#2B2B39"/>
<path d="M9.95288 5.1416C7.29455 5.1416 5.14038 7.29577 5.14038 9.9541C5.14038 12.6124 7.29455 14.7666 9.95288 14.7666C12.6112 14.7666 14.7654 12.6124 14.7654 9.9541C14.8112 7.29577 12.6571 5.1416 9.95288 5.1416ZM9.95288 13.1166C8.21122 13.1166 6.83622 11.6958 6.83622 9.99994C6.83622 8.25827 8.25705 6.88327 9.95288 6.88327C11.6946 6.88327 13.0696 8.3041 13.0696 9.99994C13.1154 11.6958 11.6946 13.1166 9.95288 13.1166Z" fill="#2B2B39"/>
<path d="M14.9972 6.10417C15.63 6.10417 16.143 5.59116 16.143 4.95833C16.143 4.32551 15.63 3.8125 14.9972 3.8125C14.3643 3.8125 13.8513 4.32551 13.8513 4.95833C13.8513 5.59116 14.3643 6.10417 14.9972 6.10417Z" fill="#2B2B39"/>
</svg>
