<svg width="22" height="22" viewBox="0 0 22 22" fill="none" xmlns="http://www.w3.org/2000/svg">
<path d="M4.5678 6.59727C5.6755 6.59727 6.57347 5.6993 6.57347 4.5916C6.57347 3.4839 5.6755 2.58594 4.5678 2.58594C3.4601 2.58594 2.56213 3.4839 2.56213 4.5916C2.56213 5.6993 3.4601 6.59727 4.5678 6.59727Z" fill="#2B2B39"/>
<path d="M8.4661 8.11704V19.2445H11.921V13.7417C11.921 12.2897 12.1942 10.8835 13.9945 10.8835C15.7701 10.8835 15.7921 12.5436 15.7921 13.8334V19.2454H19.2489V13.1431C19.2489 10.1456 18.6035 7.84204 15.1 7.84204C13.4179 7.84204 12.2904 8.76512 11.8294 9.63871H11.7826V8.11704H8.4661ZM2.83594 8.11704H6.29635V19.2445H2.83594V8.11704Z" fill="#2B2B39"/>
</svg>
