<svg width="34" height="21" viewBox="0 0 34 21" fill="none" xmlns="http://www.w3.org/2000/svg">
<path fill-rule="evenodd" clip-rule="evenodd" d="M17.1936 10.7498C19.8371 10.7498 21.9801 8.60676 21.9801 5.96322C21.9801 3.31967 19.8371 1.17664 17.1936 1.17664C14.55 1.17664 12.407 3.31967 12.407 5.96322C12.407 8.60676 14.55 10.7498 17.1936 10.7498Z" fill="white"/>
<path fill-rule="evenodd" clip-rule="evenodd" d="M21.3475 10.2141C20.2713 11.2402 18.8063 11.8716 17.1923 11.8716C15.5783 11.8716 14.1133 11.2402 13.0371 10.2141C12.8517 10.1682 12.6664 10.1228 12.4864 10.0998C12.3064 10.0768 12.1323 10.0768 11.97 10.1019C11.8081 10.1265 11.6586 10.1767 11.4839 10.2392C11.3093 10.3012 11.1101 10.376 10.8607 10.5255C10.6118 10.6751 10.3121 10.8994 10.0259 11.2739C9.73907 11.6472 9.46508 12.1713 9.21566 12.7946C8.96624 13.4174 8.74192 14.1407 8.61748 14.8388C8.49303 15.5364 8.46793 16.21 8.45565 16.7207C8.44283 17.2319 8.44283 17.5812 8.49303 17.9177C8.5427 18.2542 8.64204 18.5779 8.8669 18.9022C9.09121 19.2264 9.43998 19.5506 9.85122 19.7996C10.2625 20.049 10.7362 20.2237 11.3846 20.3107C12.0324 20.3978 12.8549 20.3978 13.8521 20.3978H16.7437H17.1923H17.6409H20.5325C21.5296 20.3978 22.3521 20.3978 23 20.3107C23.6484 20.2237 24.1221 20.049 24.5334 19.7996C24.9446 19.5506 25.2934 19.2264 25.5177 18.9022C25.7425 18.5779 25.8419 18.2542 25.8915 17.9177C25.9417 17.5812 25.9417 17.2319 25.9289 16.7207C25.9166 16.21 25.8915 15.5364 25.7671 14.8388C25.6427 14.1407 25.4183 13.4174 25.1689 12.7946C24.9195 12.1713 24.6455 11.6472 24.3587 11.2739C24.0724 10.8994 23.7728 10.6751 23.5239 10.5255C23.2745 10.376 23.0753 10.3012 22.9006 10.2392C22.726 10.1767 22.5764 10.1265 22.4146 10.1019C22.2523 10.0768 22.0781 10.0768 21.8982 10.0998C21.7182 10.1228 21.5328 10.1682 21.3475 10.2141Z" fill="white"/>
<path fill-rule="evenodd" clip-rule="evenodd" d="M22.2929 8.32214C23.1436 9.0988 24.2763 9.57314 25.519 9.57314C28.1618 9.57314 30.3043 7.4301 30.3043 4.78655C30.3043 2.14301 28.1618 -3.05176e-05 25.519 -3.05176e-05C23.8218 -3.05176e-05 22.3303 0.884 21.4812 2.21672C22.4392 3.09167 23.0406 4.35228 23.0406 5.75231C23.0406 6.69777 22.7661 7.58019 22.2929 8.32214Z" fill="white"/>
<path fill-rule="evenodd" clip-rule="evenodd" d="M11.7071 8.32214C10.8564 9.0988 9.72372 9.57314 8.48105 9.57314C5.83816 9.57314 3.69566 7.4301 3.69566 4.78655C3.69566 2.14301 5.83816 -3.05176e-05 8.48105 -3.05176e-05C10.1782 -3.05176e-05 11.6697 0.884 12.5188 2.21672C11.5608 3.09167 10.9594 4.35228 10.9594 5.75231C10.9594 6.69777 11.2339 7.58019 11.7071 8.32214Z" fill="white"/>
<path fill-rule="evenodd" clip-rule="evenodd" d="M29.4097 9.21419C28.3652 10.2093 26.9552 10.8338 25.3977 10.8701L25.5697 11.0763C25.8567 11.4496 26.1308 11.9737 26.3803 12.597C26.6298 13.2198 26.8542 13.9431 26.9787 14.6412C27.1032 15.3388 27.1283 16.0124 27.1406 16.5231C27.1534 17.0343 27.1534 17.3836 27.1032 17.7201C27.0535 18.0566 26.9541 18.3803 26.7292 18.7046C26.5619 18.946 26.3258 19.188 26.0463 19.3979H28.5944C29.5919 19.3979 30.4147 19.3979 31.0628 19.3108C31.7115 19.2238 32.1854 19.0491 32.5968 18.7996C33.0082 18.5507 33.3571 18.2265 33.5815 17.9023C33.8064 17.578 33.9058 17.2543 33.9555 16.9178C34.0057 16.5813 34.0057 16.232 33.9929 15.7208C33.9806 15.2101 33.9555 14.5365 33.831 13.8389C33.7065 13.1408 33.4821 12.4175 33.2326 11.7947C32.9831 11.1713 32.709 10.6473 32.4221 10.274C32.1357 9.89952 31.836 9.67517 31.587 9.52561C31.3375 9.37604 31.1382 9.30126 30.9635 9.2393C30.7887 9.1768 30.6391 9.12659 30.4772 9.10202C30.3148 9.07692 30.1406 9.07692 29.9606 9.09988C29.7805 9.12285 29.5951 9.16826 29.4097 9.21419Z" fill="white"/>
<path fill-rule="evenodd" clip-rule="evenodd" d="M4.59028 9.21419C5.63482 10.2093 7.04483 10.8338 8.60229 10.8701L8.43025 11.0763C8.14334 11.4496 7.86924 11.9737 7.61973 12.597C7.37021 13.2198 7.14581 13.9431 7.02132 14.6412C6.89683 15.3388 6.87171 16.0124 6.85943 16.5231C6.8466 17.0343 6.8466 17.3836 6.89683 17.7201C6.94652 18.0566 7.04589 18.3803 7.27083 18.7046C7.43807 18.946 7.67423 19.188 7.95366 19.3979H5.40561C4.40808 19.3979 3.58527 19.3979 2.93717 19.3108C2.28854 19.2238 1.81462 19.0491 1.40321 18.7996C0.991804 18.5507 0.642909 18.2265 0.418506 17.9023C0.193568 17.578 0.0941889 17.2543 0.0444996 16.9178C-0.00572413 16.5813 -0.00572413 16.232 0.00709894 15.7208C0.0193877 15.2101 0.0444996 14.5365 0.16899 13.8389C0.293481 13.1408 0.517885 12.4175 0.7674 11.7947C1.01692 11.1713 1.29101 10.6473 1.57792 10.274C1.86431 9.89952 2.16405 9.67517 2.41303 9.52561C2.66254 9.37604 2.86183 9.30126 3.03655 9.2393C3.21126 9.1768 3.36087 9.12659 3.52276 9.10202C3.68518 9.07692 3.85936 9.07692 4.03942 9.09988C4.21948 9.12285 4.40488 9.16826 4.59028 9.21419Z" fill="white"/>
</svg>
