<svg width="26" height="25" viewBox="0 0 26 25" fill="none" xmlns="http://www.w3.org/2000/svg">
<path d="M13.4825 19.8614L18.9988 23.3563C19.704 23.8031 20.5794 23.1386 20.3702 22.3155L18.7764 16.0459C18.7315 15.8713 18.7368 15.6875 18.7917 15.5158C18.8466 15.3441 18.9489 15.1913 19.0868 15.0751L24.0335 10.9578C24.6835 10.4169 24.348 9.33814 23.5129 9.28394L17.0528 8.86468C16.8788 8.85225 16.7119 8.79064 16.5716 8.68704C16.4312 8.58343 16.3232 8.44208 16.2601 8.27946L13.8507 2.2121C13.7852 2.03949 13.6688 1.89089 13.5168 1.78602C13.3649 1.68116 13.1846 1.625 13 1.625C12.8154 1.625 12.6351 1.68116 12.4832 1.78602C12.3312 1.89089 12.2148 2.03949 12.1493 2.2121L9.73995 8.27946C9.67683 8.44208 9.5688 8.58343 9.42845 8.68704C9.28811 8.79064 9.12122 8.85225 8.94721 8.86468L2.4871 9.28394C1.65201 9.33814 1.31653 10.4169 1.96651 10.9578L6.91325 15.0751C7.0511 15.1913 7.15336 15.3441 7.20827 15.5158C7.26317 15.6875 7.26849 15.8713 7.2236 16.0459L5.74553 21.8603C5.49444 22.848 6.54501 23.6453 7.39117 23.1092L12.5175 19.8614C12.6617 19.7696 12.8291 19.7208 13 19.7208C13.1709 19.7208 13.3383 19.7696 13.4825 19.8614V19.8614Z" stroke="#217BF4" stroke-width="1.5" stroke-linecap="round" stroke-linejoin="round"/>
</svg>
