<svg width="22" height="18" viewBox="0 0 22 18" fill="none" xmlns="http://www.w3.org/2000/svg">
<path d="M18.7627 3.13052C19.623 2.61485 20.2836 1.79833 20.5947 0.825458C19.7897 1.30287 18.898 1.64962 17.9489 1.83652C17.1889 1.02676 16.1061 0.520752 14.9078 0.520752C12.6067 0.520752 10.7412 2.38621 10.7412 4.6871C10.7412 5.01365 10.7781 5.33165 10.8491 5.63658C7.38636 5.46283 4.31635 3.80411 2.2614 1.28341C1.90276 1.89876 1.6973 2.61448 1.6973 3.37802C1.6973 4.82348 2.43292 6.09876 3.55087 6.8459C2.86784 6.82428 2.22545 6.63687 1.66365 6.32481C1.66335 6.34219 1.66335 6.35964 1.66335 6.37717C1.66335 8.39587 3.09953 10.0799 5.00554 10.4626C4.65589 10.5578 4.28782 10.6087 3.90779 10.6087C3.63934 10.6087 3.37831 10.5826 3.12397 10.5339C3.65412 12.1893 5.1928 13.3938 7.01599 13.4275C5.59007 14.5449 3.79355 15.211 1.84155 15.211C1.50528 15.211 1.17361 15.1913 0.847656 15.1528C2.69149 16.335 4.88156 17.0247 7.23446 17.0247C14.898 17.0247 19.0887 10.676 19.0887 5.17024C19.0887 4.98958 19.0847 4.80989 19.0767 4.63124C19.8907 4.04382 20.5971 3.30998 21.1557 2.47445C20.4085 2.80583 19.6055 3.02979 18.7627 3.13052Z" fill="#2B2B39"/>
</svg>
